<svg version="1.1" xmlns="http://www.w3.org/2000/svg" viewBox="0 0 200 200">
    <style type="text/css">
        .st0{fill:none;stroke:#FFFFFF;stroke-width:6;stroke-linecap:square;stroke-miterlimit:10;}
    </style>
    <g transform="translate(0, 0)">
        <circle class="st0" cx="100.8" cy="100.5" r="21.5"/>
        <path class="st0" d="M181.3,116.6V84.4h-16.4c-4,0-7.8-2.3-9.6-6.6c-1.6-3.9-0.7-8.3,2.2-11.3L169.1,55l-22.8-22.8l-11.6,11.6
				c-2.8,2.8-7.1,3.9-11.4,2.2c-3.9-1.6-6.4-5.3-6.4-9.5V20H84.7v16.4c0,4-2.3,7.8-6.6,9.6c-3.9,1.6-8.3,0.7-11.3-2.2L55.2,32.2
				L32.4,55l11.6,11.6c3,3,3.8,7.4,2.2,11.3c-1.8,4.3-5.6,6.6-9.6,6.6H20.3v32.2h16.4c4,0,7.8,2.3,9.6,6.6c1.6,3.9,0.7,8.3-2.2,11.3
				L32.4,146l22.8,22.8l11.6-11.6c2.8-2.8,7.1-3.9,11.4-2.2c3.9,1.6,6.4,5.3,6.4,9.5V181h32.2v-16.4c0-4.2,2.6-8,6.4-9.5
				c4.3-1.7,8.6-0.6,11.4,2.2l11.6,11.6l22.8-22.8l-11.6-11.6c-3-3-3.8-7.4-2.2-11.3c1.8-4.3,5.6-6.6,9.6-6.6H181.3z"/>
    </g>
</svg>
