<svg version="1.1" xmlns="http://www.w3.org/2000/svg" viewBox="0 0 200 200">
    <style type="text/css">
        .st0{fill:none;stroke:#FFFFFF;stroke-width:6;stroke-linecap:square;stroke-miterlimit:10;}
    </style>
    <g transform="translate(0, 0)">
        <line class="st0" x1="160.1" y1="47.7" x2="40.7" y2="47.7"/>
        <rect x="59.7" y="115.6" class="st0" width="27.1" height="27.1"/>
        <polyline class="st0" points="35.3,110.2 35.3,178 111.3,178 111.3,129.2 143.8,129.2 143.8,178 165.5,178 165.5,110.2 			"/>
        <path class="st0" d="M160.1,47.7V20.6H40.7v27.1L19,74.9c0,10.5,8.5,19,19,19c6.1,0,11.4-2.8,14.9-7.3c3.5,4.4,8.9,7.3,14.9,7.3
				c6.9,0,13-3.7,16.3-9.2c3.3,5.5,9.4,9.2,16.3,9.2s13-3.7,16.3-9.2c3.3,5.5,9.4,9.2,16.3,9.2c6.1,0,11.4-2.8,14.9-7.3
				c3.5,4.4,8.9,7.3,14.9,7.3c10.5,0,19-8.5,19-19L160.1,47.7z"/>
    </g>
</svg>
