<svg version="1.1" xmlns="http://www.w3.org/2000/svg" xmlns:xlink="http://www.w3.org/1999/xlink" x="0px" y="0px" viewBox="0 0 32 32" xml:space="preserve" width="32" height="32"><g class="nc-icon-wrapper" fill="#ffffff"><path data-color="color-2" fill="#ffffff" d="M30,15H2c-0.6,0-1,0.4-1,1s0.4,1,1,1h28c0.6,0,1-0.4,1-1S30.6,15,30,15z"></path> <path fill="#ffffff" d="M30,6H2C1.4,6,1,6.4,1,7s0.4,1,1,1h28c0.6,0,1-0.4,1-1S30.6,6,30,6z"></path> <path fill="#ffffff" d="M30,24H2c-0.6,0-1,0.4-1,1s0.4,1,1,1h28c0.6,0,1-0.4,1-1S30.6,24,30,24z"></path></g></svg>