<svg version="1.1" xmlns="http://www.w3.org/2000/svg" xmlns:xlink="http://www.w3.org/1999/xlink" x="0px" y="0px" viewBox="0 0 64 64" xml:space="preserve" width="64" height="64"><g class="nc-icon-wrapper" fill="#ffffff"><path data-cap="butt" fill="none" stroke="#ffffff" stroke-width="4" stroke-miterlimit="10" d="M6.578,33.86l30.674,22.494 c2.259,2.259,9.125-0.946,15.337-7.157s9.416-13.078,7.157-15.337L37.252,3.186" stroke-linejoin="miter" stroke-linecap="butt"></path> <path data-cap="butt" fill="none" stroke="#ffffff" stroke-width="4" stroke-miterlimit="10" d="M36,30h9c7.18,0,13-5.82,13-13v0 c0-7.18-5.82-13-13-13h-7.15" stroke-linejoin="miter" stroke-linecap="butt"></path> <ellipse transform="matrix(0.7071 -0.7071 0.7071 0.7071 -6.6787 20.9218)" fill="none" stroke="#ffffff" stroke-width="4" stroke-linecap="square" stroke-miterlimit="10" cx="21.915" cy="18.523" rx="21.69" ry="8.676" stroke-linejoin="miter"></ellipse> <path data-color="color-2" fill="none" stroke="#ffffff" stroke-width="4" stroke-linecap="square" stroke-miterlimit="10" d="M3,56 c0-2.761,5-10,5-10s5,7.239,5,10s-2.239,5-5,5S3,58.761,3,56z" stroke-linejoin="miter"></path></g></svg>