<svg version="1.1" xmlns="http://www.w3.org/2000/svg" viewBox="0 0 200 200">
    <style type="text/css">
        .st0{fill:none;stroke:#FFFFFF;stroke-width:6;stroke-linecap:square;stroke-miterlimit:10;}
    </style>
    <g>
        <polyline class="st0" points="116.1,61.8 180.9,61.8 180.9,175.1 19,175.1 19,61.8 83.7,61.8"/>
        <path class="st0" d="M116.1,72.6H83.7V40.2C83.7,31.3,91,24,99.9,24l0,0c8.9,0,16.2,7.3,16.2,16.2V72.6z"/>
        <path class="st0" d="M67.6,121.1L67.6,121.1c-5.9,0-10.8-4.9-10.8-10.8v-5.4c0-5.9,4.9-10.8,10.8-10.8l0,0
				c5.9,0,10.8,4.9,10.8,10.8v5.4C78.3,116.3,73.5,121.1,67.6,121.1z"/>
        <line class="st0" x1="116.1" y1="115.7" x2="159.3" y2="115.7"/>
        <line class="st0" x1="116.1" y1="137.3" x2="143.1" y2="137.3"/>
        <path class="st0" d="M94.5,148.1h-54l0,0c0-8.9,7.3-16.2,16.2-16.2h21.6C87.2,131.9,94.5,139.2,94.5,148.1L94.5,148.1z"/>
        <line class="st0" x1="99.9" y1="51" x2="99.9" y2="45.6"/>
    </g>
</svg>