<svg version="1.1" xmlns="http://www.w3.org/2000/svg" xmlns:xlink="http://www.w3.org/1999/xlink" x="0px" y="0px" viewBox="0 0 64 64" xml:space="preserve" width="64" height="64"><g class="nc-icon-wrapper" fill="#ffffff"><line data-color="color-2" fill="none" stroke="#ffffff" stroke-width="4" stroke-linecap="square" stroke-miterlimit="10" x1="28" y1="2" x2="28" y2="6" stroke-linejoin="miter"></line> <line data-color="color-2" fill="none" stroke="#ffffff" stroke-width="4" stroke-linecap="square" stroke-miterlimit="10" x1="40.72792" y1="7.27208" x2="37.89949" y2="10.1005" stroke-linejoin="miter"></line> <line data-color="color-2" fill="none" stroke="#ffffff" stroke-width="4" stroke-linecap="square" stroke-miterlimit="10" x1="46" y1="20" x2="42" y2="20" stroke-linejoin="miter"></line> <line data-color="color-2" fill="none" stroke="#ffffff" stroke-width="4" stroke-linecap="square" stroke-miterlimit="10" x1="15.27208" y1="7.27208" x2="18.10051" y2="10.1005" stroke-linejoin="miter"></line> <line data-color="color-2" fill="none" stroke="#ffffff" stroke-width="4" stroke-linecap="square" stroke-miterlimit="10" x1="10" y1="20" x2="14" y2="20" stroke-linejoin="miter"></line> <line fill="none" stroke="#ffffff" stroke-width="4" stroke-linecap="square" stroke-miterlimit="10" x1="24" y1="37.99999" x2="24" y2="43.99999" stroke-linejoin="miter"></line> <path fill="none" stroke="#ffffff" stroke-width="4" stroke-linecap="square" stroke-miterlimit="10" d="M31,36v-2.5 c0-1.93299,1.567-3.5,3.5-3.5H34.5c1.93299,0,3.5,1.567,3.5,3.5V36" stroke-linejoin="miter"></path> <path fill="none" stroke="#ffffff" stroke-width="4" stroke-linecap="square" stroke-miterlimit="10" d="M38,37.00021V35.5 c0-1.93299,1.567-3.5,3.5-3.5H41.5c1.93299,0,3.5,1.567,3.5,3.5V38" stroke-linejoin="miter"></path> <path fill="none" stroke="#ffffff" stroke-width="4" stroke-linecap="square" stroke-miterlimit="10" d="M45,37.5 c0-1.93299,1.567-3.5,3.5-3.5h0c1.84727,0,3.26627,1.63612,3.00502,3.46482L48,62H24c0-3.83333-7-9.33333-7-14v-6.99999 c0-1.65686,1.34315-3,3-3.00001l4-0.00001V17.5c0-1.933,1.56701-3.5,3.5-3.5h0.00001c1.93299,0,3.49999,1.567,3.49999,3.5V35" stroke-linejoin="miter"></path></g></svg>