<svg xmlns="http://www.w3.org/2000/svg" xmlns:xlink="http://www.w3.org/1999/xlink" x="0px" y="0px" width="64px" height="64px" viewBox="0 0 64 64"><g  transform="translate(8, 8)">
<path data-color="color-2" fill="none" stroke="#ffffff" stroke-width="2" stroke-linecap="square" stroke-miterlimit="10" d="M26.8,21.2&#10;&#9;L26.8,21.2c3.9,3.9,3.9,10.2,0,14.1L21.2,41c-3.9,3.9-10.2,3.9-14.1,0l0,0c-3.9-3.9-3.9-10.2,0-14.1l5-4.8"/>
<path fill="none" stroke="#ffffff" stroke-width="2" stroke-linecap="square" stroke-miterlimit="10" d="M21.2,26.8L21.2,26.8&#10;&#9;c-3.9-3.9-3.9-10.2,0-14.1L26.8,7C30.7,3.1,37.1,3.1,41,7l0,0c3.9,3.9,3.9,10.2,0,14.1L36,26"/>
</g></svg>