<svg class="nc-icon glyph" xmlns="http://www.w3.org/2000/svg" xmlns:xlink="http://www.w3.org/1999/xlink" x="0px" y="0px" width="48px" height="48px" viewBox="0 0 48 48">
<path fill="#ffffff" d="M24,1C11.317,1,1,11.318,1,24s10.317,23,23,23s23-10.318,23-23S36.683,1,24,1z M32.555,24.832l-12,8
	C20.388,32.943,20.194,33,20,33c-0.162,0-0.324-0.039-0.472-0.118C19.203,32.708,19,32.369,19,32V16
	c0-0.369,0.203-0.708,0.528-0.882c0.324-0.174,0.72-0.156,1.026,0.05l12,8C32.833,23.354,33,23.666,33,24
	S32.833,24.646,32.555,24.832z"></path>
</svg>